<svg version="1.2" baseProfile="tiny-ps" xmlns="http://www.w3.org/2000/svg" viewBox="0 0 566 566" width="566" height="566">
	<title>Icons</title>
	<style>
		tspan { white-space:pre }
		.shp0 { fill: #a68d67 } 
	</style>
	<g id="Icons">
		<g id="&lt;Group&gt;">
			<path id="&lt;Compound Path&gt;" fill-rule="evenodd" class="shp0" d="M498.41 334.18C492.9 357.46 483.71 379.31 471.5 399.1L507.48 453.22C501.27 463.12 493.15 473.08 483.12 483.11C471.49 494.74 461.53 502.86 453.23 507.46L399.11 471.48C379.32 483.7 357.47 492.88 334.19 498.39L321.37 562.08C309.98 564.69 297.19 565.99 283.01 565.99C266.57 565.99 253.78 564.69 244.66 562.08L231.83 498.39C208.56 492.88 186.7 483.7 166.92 471.48L112.79 507.46C102.9 501.25 92.93 493.13 82.91 483.11C71.28 471.48 63.16 461.51 58.55 453.22L94.53 399.1C82.31 379.31 73.13 357.46 67.62 334.18L3.93 321.36C1.32 309.96 0.02 297.18 0.02 283C0.02 266.55 1.32 253.77 3.93 244.64L67.62 231.82C73.13 208.54 82.31 186.69 94.53 166.9L58.55 112.78C64.76 102.88 72.88 92.92 82.91 82.89C94.54 71.26 104.5 63.14 112.79 58.54L166.92 94.52C186.7 82.3 208.56 73.12 231.83 67.61L244.66 3.92C256.05 1.31 268.83 0.01 283.01 0.01C299.46 0.01 312.25 1.31 321.37 3.92L334.19 67.61C357.47 73.12 379.32 82.3 399.11 94.52L453.23 58.54C463.13 64.75 473.09 72.87 483.12 82.89C494.75 94.52 502.87 104.49 507.48 112.78L471.5 166.9C483.71 186.69 492.9 208.54 498.41 231.82L562.1 244.64C564.7 256.04 566.01 268.82 566.01 283C566.01 299.45 564.7 312.23 562.1 321.36L498.41 334.18ZM464.2 283C464.2 182.94 383.08 101.82 283.01 101.82C182.95 101.82 101.83 182.94 101.83 283C101.83 383.06 182.95 464.18 283.01 464.18C383.08 464.18 464.2 383.06 464.2 283Z" />
			<path id="&lt;Path&gt;" class="shp0" d="M331.98 305.74L419.32 285.61C419.32 282.77 419.32 283.23 419.32 280.39L331.98 260.26C317.45 256.92 306.18 245.43 303.11 230.84L285.64 147.82C282.74 147.82 283.29 147.82 280.39 147.82L262.92 230.84C259.85 245.43 248.58 256.92 234.05 260.26L146.7 280.39C146.7 283.23 146.7 282.77 146.7 285.61L234.05 305.74C248.58 309.08 259.85 320.57 262.92 335.16L280.39 418.18C283.29 418.18 282.74 418.18 285.64 418.18L303.11 335.16C306.18 320.57 317.45 309.08 331.98 305.74Z" />
			<path id="&lt;Path&gt;" class="shp0" d="M356.61 244.98L383.64 251.21C373.15 218.08 346.72 191.99 313.4 181.95L318.96 208.34C335.12 216.15 348.36 229.07 356.61 244.98Z" />
			<path id="&lt;Path&gt;" class="shp0" d="M318.96 357.66L313.4 384.05C346.72 374.01 373.15 347.92 383.64 314.79L356.61 321.02C348.36 336.93 335.12 349.85 318.96 357.66Z" />
			<path id="&lt;Path&gt;" class="shp0" d="M252.63 384.05L247.07 357.66C230.91 349.85 217.67 336.93 209.42 321.02L182.39 314.79C192.88 347.92 219.3 374.01 252.63 384.05Z" />
			<path id="&lt;Path&gt;" class="shp0" d="M209.42 244.98C217.67 229.07 230.91 216.15 247.07 208.34L252.63 181.95C219.3 191.99 192.88 218.08 182.39 251.21L209.42 244.98Z" />
			<path id="&lt;Path&gt;" class="shp0" d="M301.39 124.86L306.35 148.46C362.76 158.22 407.42 202.69 417.44 259L441.13 264.46C432.62 191.4 374.46 133.3 301.39 124.86Z" />
			<path id="&lt;Path&gt;" class="shp0" d="M259.67 148.46L264.64 124.86C191.57 133.3 133.41 191.4 124.89 264.46L148.58 259C158.61 202.69 203.27 158.22 259.67 148.46Z" />
			<path id="&lt;Path&gt;" class="shp0" d="M306.35 417.54L301.39 441.14C374.46 432.7 432.62 374.6 441.13 301.54L417.44 307C407.42 363.31 362.76 407.78 306.35 417.54Z" />
			<path id="&lt;Path&gt;" class="shp0" d="M148.58 307L124.89 301.54C133.41 374.6 191.57 432.7 264.64 441.14L259.67 417.54C203.27 407.78 158.61 363.31 148.58 307Z" />
		</g>
	</g>
</svg>