<svg version="1.2" baseProfile="tiny-ps" xmlns="http://www.w3.org/2000/svg" viewBox="0 0 482 590" width="482" height="590">
	<title>Icons</title>
	<style>
		tspan { white-space:pre }
		.shp0 { fill: #a68d67 } 
	</style>
	<g id="Icons">
		<g id="&lt;Group&gt;">
			<path id="&lt;Compound Path&gt;" fill-rule="evenodd" class="shp0" d="M330.35 282.12L293.22 267.7L293.09 257.1C292.81 248.05 288.75 244.15 280.89 245.4L280.89 275.44L261.34 286.48L261.34 420.13L274.9 428.47C275.05 430.48 275.11 431.25 275.27 433.26L263.53 443.27L263.53 539.79L281.43 560.32L277.94 566.87L264.4 566.87L241.25 590.02L218.1 566.87L204.57 566.87L201.07 560.32L218.98 539.79L218.98 443.27L207.24 433.26C207.39 431.25 207.45 430.48 207.61 428.47L221.16 420.13L221.16 286.48L201.62 275.44L201.62 245.4C193.76 244.15 189.69 248.05 189.42 257.1L189.28 267.7L152.16 282.12L116.34 372.52C39.77 330.89 1.19 263.63 0.61 170.75L47.78 160.27L4.98 123.14C20.99 65.49 56.66 24.44 111.98 -0.02L128.57 81.22L189.17 119.46L189.17 131.71C189.17 143.86 192.21 148.39 201.62 150.74L201.62 117.47L241.25 82.53L280.89 117.47L280.89 150.74C290.3 148.39 293.33 143.86 293.33 131.71L293.33 119.46L353.93 81.22L370.53 -0.02C425.85 24.44 461.52 65.49 477.53 123.14L434.73 160.27L481.9 170.75C481.31 263.63 442.73 330.89 366.16 372.52L330.35 282.12ZM188.3 177.48L154.59 158.66C153.15 157.86 151.53 159.38 152.24 160.86L171.36 200.96L151.92 234.7C152.77 235.67 152.75 235.66 153.6 236.62L188.3 222.37L188.3 177.48ZM328.9 236.62C329.75 235.66 329.74 235.67 330.58 234.7L311.15 200.96L330.27 160.86C330.98 159.38 329.36 157.86 327.92 158.66L294.2 177.48L294.2 222.37L328.9 236.62Z" />
			<path id="&lt;Path&gt;" class="shp0" d="M431.8 373.78C411.83 398.2 344 484.25 324.9 508.5C326.37 510.85 326.38 510.88 327.85 513.24L374.46 503.54L375.33 546.34L449.58 456.81L398.48 469.91L434.33 375.26C432.87 374.41 433.25 374.63 431.8 373.78Z" />
			<path id="&lt;Path&gt;" class="shp0" d="M48.18 375.26L84.02 469.91L32.93 456.81L107.17 546.34L108.05 503.54L154.66 513.24C156.12 510.88 156.14 510.85 157.6 508.5C138.5 484.25 70.67 398.2 50.71 373.78C49.25 374.63 49.63 374.41 48.18 375.26Z" />
		</g>
	</g>
</svg>