<svg version="1.2" baseProfile="tiny-ps" xmlns="http://www.w3.org/2000/svg" viewBox="0 0 543 496" width="543" height="496">
	<title>Icons</title>
	<style>
		tspan { white-space:pre }
		.shp0 { fill: #a68d67 } 
	</style>
	<g id="Icons">
		<g id="&lt;Group&gt;">
			<path id="&lt;Compound Path&gt;" fill-rule="evenodd" class="shp0" d="M278.63 495.34L278.63 495.48L273.3 495.48C273.3 495.49 273.3 495.49 273.3 495.5C272.81 495.51 272.34 495.54 271.85 495.54C271.65 495.54 271.45 495.53 271.25 495.52C271.05 495.53 270.85 495.54 270.65 495.54C270.17 495.54 269.69 495.51 269.21 495.5C269.21 495.49 269.21 495.49 269.21 495.48L263.87 495.48L263.87 495.34C128.02 491.08 30.62 378.84 30.62 241.5C30.62 205.23 49.16 154.88 64.28 115.84C52.35 119.96 40.4 124.56 28.57 129.79L40.25 101.75C51.7 96.9 63.23 92.65 74.71 88.86C76.94 82.96 78.88 77.65 80.34 73.15C86.17 55.25 69.73 32.18 49.65 30.14L49.65 0.68C110.51 -4.68 138.24 19.55 132.84 73.38C183.73 62.81 229.87 58.57 271.24 60.67C312.62 58.57 358.76 62.81 409.66 73.39C404.26 19.56 431.99 -4.68 492.85 0.68L492.85 30.14C472.77 32.18 456.33 55.25 462.16 73.15C463.63 77.65 465.56 82.97 467.8 88.87C479.27 92.65 490.79 96.91 502.23 101.75L513.91 129.79C502.09 124.57 490.15 119.96 478.23 115.85C493.34 154.89 511.88 205.24 511.88 241.5C511.88 378.84 414.49 491.08 278.63 495.34ZM327.74 260.52L327.74 404.25C339.83 400.33 351.35 395.23 362.11 389L362.11 247.07L360.14 247.52C348.53 250.19 337.66 254.65 327.74 260.52ZM362.11 89.23C349.72 87.61 338.17 86.45 327.74 85.62L327.74 227.39C337.66 233.26 348.53 237.72 360.14 240.39L362.11 240.84L362.11 89.23ZM214.77 227.39L214.77 85.62C204.33 86.44 192.78 87.61 180.39 89.22L180.39 240.84L182.37 240.39C193.97 237.72 204.84 233.26 214.77 227.39ZM180.39 389C191.15 395.23 202.68 400.33 214.77 404.25L214.77 260.52C204.84 254.65 193.97 250.19 182.37 247.52L180.39 247.07L180.39 389ZM278.63 332.82L278.63 413.05C290.43 412.56 301.92 410.96 313 408.37L313 270.88C302.09 279.91 292.89 290.91 285.95 303.36C280.95 312.33 278.63 322.55 278.63 332.82ZM414.62 98.24C401.56 95.43 388.89 93.14 376.84 91.3L376.84 379.42C419.54 348.57 447.2 299.12 447.2 241.61C447.2 200.96 431.99 146.51 417.35 107.08C416.32 104.03 415.45 101.12 414.62 98.24ZM278.63 83.63L278.63 154.45C278.63 165.14 281 175.8 286.26 185.11C293.16 197.33 302.26 208.13 313 217.03L313 84.61C297.59 83.73 285.71 83.59 278.63 83.63ZM229.5 84.61L229.5 217.03C240.25 208.13 249.34 197.33 256.24 185.11C261.5 175.8 263.87 165.14 263.87 154.45L263.87 83.63C256.8 83.59 244.92 83.73 229.5 84.61ZM165.66 379.42L165.66 91.29C153.62 93.13 140.94 95.43 127.88 98.23C127.06 101.11 126.19 104.03 125.15 107.08C110.52 146.51 95.31 200.96 95.31 241.61C95.31 299.12 122.96 348.57 165.66 379.42ZM263.87 413.05L263.87 332.82C263.87 322.55 261.56 312.33 256.56 303.36C249.62 290.91 240.41 279.91 229.5 270.88L229.5 408.37C240.59 410.96 252.08 412.56 263.87 413.05Z" />
			<path id="&lt;Path&gt;" class="shp0" d="M532.07 240.64C530.26 241.02 531 240.87 529.18 241.25C535.58 297.25 526.45 350.42 502.06 395.98C473.23 449.82 423.9 479.98 400.6 491.87C401.25 493.51 401.05 493 401.7 494.64C571.66 451.23 546.38 294.77 532.07 240.64Z" />
			<path id="&lt;Path&gt;" class="shp0" d="M40.45 395.98C16.06 350.42 6.93 297.25 13.32 241.25C11.51 240.87 12.25 241.02 10.44 240.64C-3.87 294.77 -29.16 451.23 140.8 494.64C141.46 493 141.25 493.51 141.91 491.87C118.61 479.98 69.27 449.82 40.45 395.98Z" />
		</g>
	</g>
</svg>