<svg version="1.2" baseProfile="tiny-ps" xmlns="http://www.w3.org/2000/svg" viewBox="0 0 608 608" width="608" height="608">
	<title>Icons</title>
	<style>
		tspan { white-space:pre }
		.shp0 { fill: #a68d67 } 
	</style>
	<g id="Icons">
		<g id="&lt;Group&gt;">
			<path id="&lt;Path&gt;" class="shp0" d="M361.09 486.6L358.98 482.5C337.08 489.45 316.07 491.39 298.39 491.12C283.37 490.46 266.53 488.06 249.02 482.5L246.91 486.6C283.83 511.72 302.28 552.12 302.28 607.81L306.11 607.81C306.11 552.12 324.44 511.72 361.09 486.6Z" />
			<path id="&lt;Path&gt;" class="shp0" d="M121.8 361.33L125.9 359.22C118.95 337.32 117.01 316.31 117.29 298.63C117.95 283.61 120.34 266.77 125.9 249.26L121.8 247.15C96.69 284.07 56.28 302.52 0.59 302.52L0.59 306.35C56.28 306.35 96.69 324.68 121.8 361.33Z" />
			<path id="&lt;Path&gt;" class="shp0" d="M486.2 247.15L482.1 249.26C489.05 271.17 490.99 292.17 490.71 309.85C490.05 324.87 487.66 341.72 482.1 359.22L486.2 361.33C511.31 324.41 551.72 305.96 607.41 305.96L607.41 302.13C551.72 302.13 511.31 283.8 486.2 247.15Z" />
			<path id="&lt;Path&gt;" class="shp0" d="M237.28 194.96L237.28 238.9L196.59 238.9L64.77 81.85L237.28 194.96Z" />
			<path id="&lt;Path&gt;" class="shp0" d="M193.34 369.89L237.28 369.89L237.28 410.57L80.23 542.39L193.34 369.89Z" />
			<path id="&lt;Path&gt;" class="shp0" d="M452.24 258.01L433.32 267.93L340.31 267.93L340.31 174.92L350.23 156C341.18 152.95 325.77 151.42 304 151.42C285.89 151.42 270.49 152.95 257.77 156L267.69 174.92L267.69 267.93L174.68 267.93L155.76 258.01C152.71 267.06 151.18 282.47 151.18 304.24C151.18 322.35 152.71 337.75 155.76 350.47L174.68 340.55L267.69 340.55L267.69 433.56L257.77 452.48C266.82 455.53 282.23 457.06 304 457.06C322.1 457.06 337.51 455.53 350.23 452.48L340.31 433.56L340.31 340.55L433.32 340.55L452.24 350.47C455.29 341.42 456.82 326.01 456.82 304.24C456.82 286.14 455.29 270.73 452.24 258.01Z" />
			<path id="&lt;Path&gt;" class="shp0" d="M370.56 194.96L370.56 238.9L411.25 238.9L543.07 81.85L370.56 194.96Z" />
			<path id="&lt;Path&gt;" class="shp0" d="M414.5 369.89L370.56 369.89L370.56 410.57L527.61 542.39L414.5 369.89Z" />
			<path id="&lt;Path&gt;" class="shp0" d="M246.91 121.53L249.02 125.63C270.92 118.68 291.93 116.74 309.61 117.02C324.63 117.68 341.47 120.08 358.98 125.63L361.09 121.53C324.17 96.42 305.72 56.01 305.72 0.32L301.89 0.32C301.89 56.01 283.56 96.42 246.91 121.53Z" />
		</g>
	</g>
</svg>