<svg version="1.2" baseProfile="tiny-ps" xmlns="http://www.w3.org/2000/svg" viewBox="0 0 467 596" width="467" height="596">
	<title>Icons</title>
	<style>
		tspan { white-space:pre }
		.shp0 { fill: #a68d67 } 
	</style>
	<g id="Icons">
		<g id="&lt;Group&gt;">
			<path id="&lt;Compound Path&gt;" fill-rule="evenodd" class="shp0" d="M160.69 260C81.18 349.36 90.31 438.03 188.07 526C80.3 470.09 17.75 406.02 0.41 333.77L56.15 333.77C34.47 294.71 27.55 240.33 35.38 170.63L110.86 173.54L124.03 192.73C146.33 138 182.85 73.81 233.59 0.16C284.34 73.81 320.86 138 343.15 192.73L356.32 173.54L431.81 170.63C439.64 240.33 432.71 294.71 411.03 333.77L466.78 333.77C449.43 406.02 386.88 470.09 279.11 526C376.87 438.03 386 349.36 306.5 260C304.91 260.8 305.31 260.6 303.73 261.41C316.01 293.84 353.89 419.68 251.24 526L236.69 595.84C233.22 595.84 233.96 595.84 230.49 595.84L215.94 526C113.29 419.68 151.17 293.84 163.45 261.41C161.87 260.6 162.27 260.8 160.69 260ZM233.59 495.43C267.66 421.47 273.54 339.36 251.24 249.1C243.51 214.89 238.15 182.63 235.16 152.31C233.22 152.31 233.96 152.31 232.03 152.31C229.03 182.63 223.67 214.89 215.94 249.1C193.64 339.36 199.53 421.47 233.59 495.43Z" />
			<path id="&lt;Path&gt;" class="shp0" d="M54.06 139.04C62.41 95.4 93.36 56.8 146.9 23.23C150.24 26.79 149.56 26.07 152.9 29.62C137.49 50.7 113.59 89.38 99.35 142.1L54.06 139.04Z" />
			<path id="&lt;Path&gt;" class="shp0" d="M172.36 544.06C124.93 548.52 83.96 535.55 49.47 505.14C28.34 488.11 17.56 457.1 17.13 412.1C35.24 470.68 86.98 514.66 172.36 544.06Z" />
			<path id="&lt;Path&gt;" class="shp0" d="M320.28 23.23C373.82 56.8 404.77 95.4 413.12 139.04L367.83 142.1C353.6 89.38 329.69 50.7 314.28 29.62C317.62 26.07 316.94 26.79 320.28 23.23Z" />
			<path id="&lt;Path&gt;" class="shp0" d="M450.05 412.1C449.62 457.1 438.84 488.11 417.71 505.14C383.22 535.55 342.25 548.52 294.82 544.06C380.2 514.66 431.94 470.68 450.05 412.1Z" />
		</g>
	</g>
</svg>