<svg version="1.2" baseProfile="tiny-ps" xmlns="http://www.w3.org/2000/svg" viewBox="0 0 556 523" width="556" height="523">
	<title>Icons</title>
	<style>
		tspan { white-space:pre }
		.shp0 { fill: #a68d67 } 
	</style>
	<g id="Icons">
		<g id="&lt;Group&gt;">
			<path id="&lt;Path&gt;" class="shp0" d="M42.75 212.48C36.89 233.4 33.69 255.43 33.69 278.2C33.69 327.36 48.34 373.13 73.41 411.49L98.23 386.68L118.6 366.3C104.1 340.17 95.81 310.14 95.81 278.2C95.81 274.1 96 270.04 96.27 266L95.85 265.58L42.75 212.48Z" />
			<path id="&lt;Path&gt;" class="shp0" d="M265.1 96.52C269.37 96.22 273.66 96.01 278.01 96.01C282.21 96.01 286.36 96.21 290.49 96.49L343.97 43.01C322.97 37.11 300.86 33.89 278.01 33.89C255.02 33.89 232.79 37.15 211.69 43.11L265.07 96.49L265.1 96.52Z" />
			<path id="&lt;Path&gt;" class="shp0" d="M175.86 278.2C175.86 287.51 177.21 296.48 179.54 305.05L206.55 278.05L179.61 251.11C177.23 259.75 175.86 268.81 175.86 278.2Z" />
			<path id="&lt;Path&gt;" class="shp0" d="M304.85 179.74C296.29 177.41 287.31 176.05 278.01 176.05C268.4 176.05 259.14 177.47 250.33 179.95L277.48 207.11L304.85 179.74Z" />
			<path id="&lt;Path&gt;" class="shp0" d="M360.27 289.9L376.25 305.88C378.73 297.07 380.15 287.81 380.15 278.2C380.15 268.67 378.75 259.49 376.31 250.74L348.71 278.34L360.24 289.87L360.27 289.9Z" />
			<path id="&lt;Path&gt;" class="shp0" d="M250.55 376.51C259.29 378.95 268.48 380.35 278.01 380.35C287.4 380.35 296.46 378.97 305.1 376.6L277.77 349.28L250.55 376.51Z" />
			<path id="&lt;Path&gt;" class="shp0" d="M368.97 439.23L366.89 437.15C340.58 451.93 310.27 460.39 278.01 460.39C245.97 460.39 215.86 452.05 189.68 437.48L164 463.15L144.5 482.66C182.91 507.82 228.76 522.51 278.01 522.51C327.48 522.51 373.54 507.69 412.05 482.31L369.33 439.59L368.97 439.23Z" />
			<path id="&lt;Path&gt;" class="shp0" d="M476.23 404.65L482.78 411.2C507.75 372.9 522.32 327.23 522.32 278.2C522.32 255.3 519.08 233.16 513.16 212.12L459.71 265.58C460 269.75 460.2 273.95 460.2 278.2C460.2 310.02 451.98 339.94 437.58 366L475.84 404.27L476.23 404.65Z" />
			<g id="&lt;Group&gt;">
				<path id="&lt;Path&gt;" class="shp0" d="M546.18 10.02C534 -2.16 522.57 -2.67 511.89 8.5C518.73 11.65 525.62 16.7 532.57 23.64C539.27 30.34 544.31 37.23 547.71 44.32C558.88 33.64 558.37 22.21 546.18 10.02Z" />
				<path id="&lt;Compound Path&gt;" fill-rule="evenodd" class="shp0" d="M538.17 167.44L457.72 246.87C455.09 223.76 446.03 200.34 430.55 176.63L135.38 471.8L64.75 491.45L84.41 420.83L379.58 125.66C354.01 109.28 330.33 100.15 308.54 98.25L388.76 18.03L396.77 17.89L393.13 59.97C407.87 66.91 422.44 77.77 433.41 86.97L504.39 15.99C512.69 20.61 519.58 25.65 525.07 31.14C532.01 38.08 537.06 44.97 540.21 51.82L469.23 122.8C478.43 133.76 489.3 148.34 496.23 163.07L538.32 159.43L538.17 167.44ZM409.3 152.15L404.05 146.91L296.15 254.82L294.18 262.03L301.39 260.06L409.3 152.15Z" />
			</g>
			<path id="&lt;Path&gt;" class="shp0" d="M44.39 8.5C33.71 -2.67 22.28 -2.16 10.09 10.02C-2.09 22.21 -2.6 33.64 8.56 44.32C11.96 37.23 17.01 30.34 23.71 23.64C30.65 16.7 37.54 11.65 44.39 8.5Z" />
			<path id="&lt;Path&gt;" class="shp0" d="M239.86 245.04L146.98 152.15L152.22 146.91L245.1 239.79L267.97 216.93L176.7 125.66C202.26 109.28 225.94 100.15 247.73 98.25L167.51 18.03L159.5 17.89L163.14 59.97C148.41 66.91 133.83 77.77 122.87 86.97L51.89 15.99C43.59 20.61 36.69 25.65 31.21 31.14C24.27 38.08 19.22 44.97 16.06 51.82L87.04 122.8C77.84 133.76 66.98 148.34 60.04 163.07L17.96 159.43L18.1 167.44L98.56 246.87C101.19 223.76 110.24 200.34 125.73 176.63L217 267.9L217.26 267.64L239.86 245.04Z" />
			<path id="&lt;Path&gt;" class="shp0" d="M491.52 491.45L471.86 420.83L338.97 287.93L296.25 330.65L295.87 331.03L288 338.9L420.9 471.8L491.52 491.45Z" />
		</g>
	</g>
</svg>