<svg version="1.2" baseProfile="tiny-ps" xmlns="http://www.w3.org/2000/svg" viewBox="0 0 622 568" width="622" height="568">
	<title>Icons</title>
	<style>
		tspan { white-space:pre }
		.shp0 { fill: #a68d67 } 
	</style>
	<g id="Icons">
		<path id="&lt;Path&gt;" class="shp0" d="M620.14 0.08L473.57 244.91L483.43 207.7C466.06 169.24 429.47 127.48 373.65 82.41L358.14 79.92L358.14 219.48L343.25 206.46L343.25 71.86L355.04 66.9L311 39.61L266.96 66.9L278.75 71.86L278.75 206.46L263.86 219.48L263.86 79.92L248.35 82.41C192.53 127.48 155.94 169.24 138.57 207.7L148.43 244.91L1.86 0.08C0.63 24.96 -0.22 58.41 1.26 93.25L76.11 194.35C74.71 195.48 75.32 194.98 73.92 196.11L2.45 116.68C4.27 142.27 7.53 165.31 13.01 187.97L80.47 250.09C79.34 251.46 79.81 250.89 78.68 252.26L18.72 210.86C25.59 232.56 34.99 251.85 46.95 273.18C48.74 275.83 50.2 277.91 51.32 279.44L105.24 311.54C104.48 313.09 104.77 312.5 104 314.05L61.04 299.3C81.02 328.61 108.92 357.56 139.81 382.61L139.81 431.95C139.81 440.17 137.69 448.25 133.66 455.41L123.06 474.26L276.27 567.92L283.71 317.48L215.48 317.48C193.56 302.18 181.57 283.58 179.51 261.66L275.02 261.66C271.14 255.3 272.65 247.04 278.53 242.46L281.23 240.36L311 289.78L340.77 240.36L343.47 242.46C349.35 247.04 350.86 255.3 346.97 261.66L442.49 261.66C440.43 283.58 428.44 302.18 406.52 317.48L338.29 317.48L345.73 567.92L498.94 474.26L488.33 455.41C484.31 448.25 482.19 440.17 482.19 431.95L482.19 382.61C513.08 357.56 540.98 328.61 560.96 299.3L518 314.05C517.23 312.5 517.52 313.09 516.75 311.54L570.68 279.44C571.8 277.91 573.26 275.83 575.05 273.18C587.01 251.85 596.41 232.56 603.28 210.86L543.32 252.26C542.19 250.89 542.66 251.46 541.53 250.09L608.99 187.97C614.47 165.31 617.73 142.27 619.55 116.68L548.08 196.11C546.68 194.98 547.29 195.48 545.89 194.35L620.74 93.25C622.22 58.41 621.37 24.96 620.14 0.08Z" />
	</g>
</svg>