<svg version="1.2" baseProfile="tiny-ps" xmlns="http://www.w3.org/2000/svg" viewBox="0 0 553 587" width="553" height="587">
	<title>Icons</title>
	<style>
		tspan { white-space:pre }
		.shp0 { fill: #a68d67 } 
	</style>
	<g id="Icons">
		<g id="&lt;Group&gt;">
			<path id="&lt;Path&gt;" class="shp0" d="M303.82 136.43C304.03 133.44 307.26 131.79 309.68 133.43L334.47 150.23C335.89 149.03 335.82 149.09 337.24 147.89L277.1 1.85L277.1 -0.11L276.72 0.87L276.35 -0.11L276.35 1.85L216.2 147.89C217.62 149.09 217.56 149.03 218.97 150.23L243.77 133.43C246.19 131.79 249.42 133.44 249.62 136.43L270.23 530.55L234.9 580.27C237.21 583.39 237.02 583.13 239.33 586.25L276.72 571.17L314.12 586.25C316.42 583.13 316.24 583.39 318.54 580.27L283.21 530.55L303.82 136.43Z" />
			<path id="&lt;Path&gt;" class="shp0" d="M323.97 176.13C322.69 176.35 322.84 176.32 321.56 176.54L311.98 281.67C338.48 286.59 359.91 296.02 377.28 307.95L307.9 506.2L314.78 509.22L400.68 327.82C441.41 370.04 449.54 426.01 451.69 441.05L307.95 540.21L316.36 551.29L552.5 396.12L551.62 386.58L486.62 346.45C477.05 320.15 458.35 291.09 429.61 266.71L455.05 212.99C456.07 210.93 458.85 210.76 460.1 212.69L472.84 232.41C474.2 232 474.14 232.02 475.5 231.61L475.34 108.81L475.92 107.41L475.36 107.99L475.38 107.17L474.81 108.57L389.31 193.73C389.98 195.03 389.94 194.97 390.6 196.26L413.17 192.06C415.37 191.65 417.19 193.84 416.46 196.03L399.25 245.2C383.01 235.67 364.59 227.62 343.85 221.83L343.85 221.82L323.97 176.13Z" />
			<path id="&lt;Path&gt;" class="shp0" d="M244.93 540.47L100.82 441.05C102.96 426.01 111.1 370.04 151.83 327.82L237.72 509.22L244.6 506.2L175.22 307.95C192.59 296.02 214.03 286.59 240.52 281.67L240.52 281.67L240.52 281.67L230.95 176.54C229.67 176.32 229.82 176.35 228.54 176.13L208.65 221.82L208.66 221.83C187.92 227.62 169.49 235.67 153.26 245.2L136.05 196.03C135.32 193.84 137.13 191.65 139.34 192.06L161.9 196.26C162.56 194.97 162.53 195.03 163.19 193.73L77.7 108.57L77.12 107.17L77.14 107.99L76.59 107.41L77.16 108.81L77.01 231.61C78.37 232.02 78.3 232 79.66 232.41L92.41 212.69C93.65 210.76 96.44 210.93 97.45 212.99L122.89 266.71C94.15 291.09 75.45 320.15 65.88 346.45L0.88 386.58L0 396.12L236.53 551.55L244.93 540.47Z" />
		</g>
	</g>
</svg>