<svg version="1.2" baseProfile="tiny-ps" xmlns="http://www.w3.org/2000/svg" viewBox="0 0 566 580" width="566" height="580">
	<title>Icons</title>
	<style>
		tspan { white-space:pre }
		.shp0 { fill: #a68d67 } 
	</style>
	<g id="Icons">
		<g id="&lt;Group&gt;">
			<path id="&lt;Path&gt;" class="shp0" d="M283 104.08L283.06 104.08L334.23 55.13C328.66 32.14 311.61 13.76 283.06 0L283 0L282.94 0C254.39 13.76 237.34 32.14 231.77 55.13L282.94 104.08L283 104.08Z" />
			<path id="&lt;Compound Path&gt;" fill-rule="evenodd" class="shp0" d="M565.7 366.59C552.37 414.93 525.92 424.94 486.34 396.62L390.24 327.85C368.54 311.16 351.21 310.94 338.23 327.18C338.22 327.19 338.21 327.21 338.21 327.22L290.58 545.08L295.36 549.87L383.34 338.21C383.37 338.16 383.42 338.15 383.47 338.18L421.09 364.45C421.13 364.48 421.14 364.53 421.12 364.56L354.37 479.37C354.32 479.46 354.44 479.54 354.5 479.47L441.62 379.24C441.65 379.21 441.7 379.2 441.73 379.23L478.75 406.36C478.79 406.39 478.79 406.45 478.75 406.48L283.07 580L282.93 580L87.24 406.48C87.21 406.45 87.21 406.39 87.25 406.36L124.26 379.23C124.3 379.2 124.35 379.21 124.38 379.24L211.5 479.47C211.56 479.54 211.68 479.46 211.63 479.37L144.88 364.56C144.86 364.53 144.87 364.48 144.91 364.45L182.53 338.18C182.58 338.15 182.63 338.16 182.65 338.21L270.64 549.87L275.42 545.08L227.79 327.22C227.79 327.21 227.78 327.19 227.77 327.18C214.79 310.94 197.46 311.16 175.76 327.85L79.66 396.62C40.08 424.94 13.63 414.93 0.3 366.59L3.33 363.41C16.26 380.55 33.81 380.59 55.97 363.51L78.51 347.38C78.54 347.36 78.55 347.33 78.54 347.29L71.46 324.83C67.08 310.92 60.52 297.79 52.04 285.93L44.66 275.63C44.65 275.61 44.63 275.59 44.6 275.59L24.71 274.95C24.68 274.95 24.66 274.96 24.65 274.93C24.37 274.29 15.02 252.07 37.39 236.07L37.45 236.02C59.64 220.14 77.82 236.04 78.35 236.51C78.37 236.53 78.35 236.54 78.34 236.57L72.53 255.61C72.53 255.63 72.53 255.66 72.54 255.68L79.92 265.98C88.4 277.84 98.71 288.28 110.46 296.92L129.44 310.87C129.47 310.89 129.51 310.89 129.54 310.87L137.24 305.36C137.27 305.34 137.28 305.31 137.27 305.28C113.41 205.01 195.94 181.78 247.99 176.92C248.03 176.91 248.05 176.88 248.06 176.84L254.01 96.25C254.02 96.18 254.1 96.15 254.15 96.2L282.94 124.39C282.97 124.42 283.03 124.42 283.06 124.39L311.85 96.2C311.9 96.15 311.98 96.18 311.99 96.25L317.94 176.84C317.94 176.88 317.97 176.91 318.01 176.92C370.06 181.78 452.59 205.01 428.73 305.28C428.72 305.31 428.73 305.34 428.76 305.36L436.46 310.87C436.49 310.89 436.53 310.89 436.56 310.87L455.54 296.92C467.29 288.28 477.6 277.84 486.08 265.98L493.46 255.68C493.47 255.66 493.47 255.63 493.47 255.61L487.66 236.57C487.65 236.54 487.63 236.53 487.65 236.51C488.18 236.04 506.36 220.14 528.55 236.02L528.61 236.07C550.98 252.07 541.63 274.29 541.35 274.93C541.34 274.96 541.32 274.95 541.29 274.95L521.4 275.59C521.37 275.59 521.35 275.61 521.34 275.63L513.96 285.93C505.48 297.79 498.92 310.92 494.54 324.83L487.46 347.29C487.45 347.33 487.46 347.36 487.49 347.38L510.03 363.51C532.19 380.59 549.74 380.55 562.67 363.41L565.7 366.59ZM417.36 297.21C416.51 271.58 399.73 224.25 287.3 224.25L278.7 224.25C166.43 224.25 149.57 271.55 148.66 297.19L152.08 294.75C190.27 267.42 212.16 287.68 222.92 305.61C222.96 305.69 223.07 305.64 223.05 305.55L210.16 246.58C210.15 246.54 210.14 246.51 210.18 246.5C211.26 246.12 239.41 236.52 267.27 240.05C267.31 240.06 267.34 240.09 267.34 240.13L282.92 410.26C282.93 410.36 283.07 410.36 283.08 410.26L298.66 240.13C298.66 240.09 298.69 240.06 298.73 240.05C326.59 236.52 354.74 246.12 355.82 246.5C355.86 246.51 355.85 246.54 355.84 246.58L342.95 305.55C342.93 305.64 343.04 305.69 343.08 305.61C353.84 287.68 375.73 267.42 413.92 294.75L417.36 297.21Z" />
		</g>
	</g>
</svg>