<svg version="1.2" baseProfile="tiny-ps" xmlns="http://www.w3.org/2000/svg" viewBox="0 0 506 615" width="506" height="615">
	<title>Icons</title>
	<style>
		tspan { white-space:pre }
		.shp0 { fill: #a68d67 } 
	</style>
	<g id="Icons">
		<g id="&lt;Group&gt;">
			<path id="&lt;Path&gt;" class="shp0" d="M436.07 262.19C480.3 337.31 485.68 401.06 452.18 453.44C453.98 380.07 431.86 331.67 385.8 308.26L385.79 308.26C400.69 328.36 409.57 353.56 409.57 380.95C409.57 446.58 358.66 499.79 295.84 499.79C233.03 499.79 183.73 446.56 182.11 380.95C181.44 353.43 196.32 307.77 238.47 264.77C266.12 236.56 286.04 206.68 295.81 186.78C334.79 107.41 306.33 16.7 278.64 0.51C304.31 59.35 297.23 113.8 257.41 163.88C227.97 200.9 187.25 230.91 153.34 262.07C144.74 269.54 115.89 302.93 105.2 320.72C89.11 347.51 80.9 378.32 80.9 410.86C80.9 523.62 175.26 615.03 291.67 615.03C408.08 615.03 505.61 522.31 505.61 409.55C505.61 350.93 474.5 288.85 436.07 262.19Z" />
			<path id="&lt;Path&gt;" class="shp0" d="M316.47 360L294.6 259.37L272.74 360C271.68 364.87 267.8 368.71 262.79 369.82L155.96 393.67L262.79 417.51C267.8 418.62 271.68 422.46 272.74 427.33L294.6 527.96L316.47 427.33C317.53 422.46 321.41 418.62 326.42 417.51L433.24 393.67L326.42 369.82C321.41 368.71 317.53 364.87 316.47 360Z" />
			<path id="&lt;Path&gt;" class="shp0" d="M394.29 209.68L385.68 170.05L377.07 209.68C375.95 214.81 371.86 218.85 366.59 220.03L324.36 229.45L366.59 238.88C371.86 240.05 375.95 244.09 377.07 249.22L385.68 288.85L394.29 249.22C395.4 244.09 399.49 240.05 404.77 238.88L447 229.45L404.77 220.03C399.49 218.85 395.4 214.81 394.29 209.68Z" />
			<path id="&lt;Path&gt;" class="shp0" d="M191.13 132.44C194.17 144.39 190.07 157.7 179.8 172.56C150.46 215.06 94.35 268.41 63.99 328.48C18 419.45 50.24 512.4 82.1 550.4C0.44 497.11 -20.02 424.85 20.71 333.61C33.72 304.46 60.64 269.92 112.34 225.13C130.11 209.74 152.09 190.68 170.39 170.24C181.37 157.98 188.76 145.65 191.13 132.44Z" />
		</g>
	</g>
</svg>