<svg version="1.2" baseProfile="tiny-ps" xmlns="http://www.w3.org/2000/svg" viewBox="0 0 609 640" width="609" height="640">
	<title>Icons</title>
	<style>
		tspan { white-space:pre }
		.shp0 { fill: #a68d67 } 
	</style>
	<g id="Icons">
		<g id="&lt;Group&gt;">
			<path id="&lt;Path&gt;" class="shp0" d="M124.23 261.27L124.19 261.26C132.33 204.77 162.65 164.07 174.2 150.3C173.2 149.05 173.38 149.28 172.37 148.02C143.2 162.21 118.91 186.64 99.52 221.33C104.43 170.32 139.75 126.17 157.05 107.32C155.93 106 156.26 106.38 155.13 105.06C92.86 143.63 51.92 207.97 47.91 290L120.81 280.8C121.62 274.18 122.75 267.66 124.23 261.27Z" />
			<path id="&lt;Compound Path&gt;" fill-rule="evenodd" class="shp0" d="M129.04 351.75L0.25 317.59C3.79 311.51 10.18 307.71 17.21 307.48C51.45 306.38 86.67 303.47 122.86 298.75C157.46 294.37 176.73 277.73 180.65 248.83L204.39 117.39C213.67 64.14 207.94 25.28 187.2 0.81C233.04 14.45 252.96 59.47 246.95 135.87L240.41 224.27C272.26 195.67 283.46 155.71 286.72 140.47C288.14 140.48 287.88 140.48 289.3 140.48L304.25 206.26L319.2 140.48C320.62 140.48 320.36 140.48 321.78 140.47C325.04 155.71 336.25 195.67 368.1 224.27L361.55 135.87C355.55 59.47 375.47 14.45 421.3 0.81C400.57 25.28 394.84 64.14 404.11 117.39L427.85 248.83C431.78 277.73 451.04 294.37 485.64 298.75C521.83 303.47 557.05 306.38 591.29 307.48C598.32 307.71 604.71 311.51 608.25 317.59L479.46 351.75C437.42 358.39 403.57 394.61 377.92 460.39C350.64 536.53 332.08 596.16 322.26 639.27L319.3 637.68C314.49 635.09 311.26 630.3 310.66 624.88L304.25 566.99L297.84 624.88C297.24 630.3 294.01 635.09 289.21 637.68L286.24 639.27C276.42 596.16 257.87 536.53 230.58 460.39C204.93 394.61 171.09 358.39 129.04 351.75ZM254.65 378.93C269.97 387.5 287.11 391.79 304.25 391.79C321.39 391.79 338.54 387.5 353.85 378.93C382.91 362.68 407.12 330.14 368.92 266.02L309.16 293.85C309.71 303.12 314.89 308.31 324.72 309.4L304.25 376.52L283.79 309.4C293.61 308.31 298.79 303.12 299.34 293.85L239.59 266.02C201.39 330.14 225.59 362.68 254.65 378.93Z" />
			<path id="&lt;Path&gt;" class="shp0" d="M267.83 299.99C249.55 311.31 245.93 330.95 256.98 358.92L253.91 358.92C234.95 333.96 234.13 311.51 251.46 291.6L267.83 299.99Z" />
			<path id="&lt;Path&gt;" class="shp0" d="M209.09 462.58C216.04 484.23 232.07 532.15 240.85 558.31C143.26 533.08 69.64 452.08 51.75 351.09L132.78 372.5C147.88 410.11 174.85 441.72 209.09 462.58Z" />
			<path id="&lt;Path&gt;" class="shp0" d="M290.75 74.78C290.75 61.07 295.25 46.65 304.25 31.5C313.26 46.65 317.76 61.07 317.76 74.78C317.76 85.56 313.26 106.64 304.25 138.02C295.25 106.64 290.75 85.56 290.75 74.78Z" />
			<path id="&lt;Path&gt;" class="shp0" d="M354.59 358.92L351.52 358.92C362.57 330.95 358.96 311.31 340.68 299.99L357.05 291.6C374.37 311.51 373.56 333.96 354.59 358.92Z" />
			<path id="&lt;Path&gt;" class="shp0" d="M484.27 261.27L484.31 261.26C476.18 204.77 445.85 164.07 434.3 150.3C435.31 149.05 435.13 149.28 436.13 148.02C465.31 162.21 489.59 186.64 508.99 221.33C504.07 170.32 468.76 126.17 451.45 107.32C452.57 106 452.25 106.38 453.37 105.06C515.65 143.63 556.58 207.97 560.6 290L487.7 280.8C486.88 274.18 485.75 267.66 484.27 261.27Z" />
			<path id="&lt;Path&gt;" class="shp0" d="M475.73 372.5L556.76 351.09C538.86 452.08 465.24 533.08 367.65 558.31C376.43 532.15 392.47 484.23 399.42 462.58C433.65 441.72 460.63 410.11 475.73 372.5Z" />
		</g>
	</g>
</svg>