<svg version="1.2" baseProfile="tiny-ps" xmlns="http://www.w3.org/2000/svg" viewBox="0 0 547 617" width="547" height="617">
	<title>Icons</title>
	<style>
		tspan { white-space:pre }
		.shp0 { fill: #a68d67 } 
	</style>
	<g id="Icons">
		<g id="&lt;Group&gt;">
			<path id="&lt;Path&gt;" class="shp0" d="M412.5 181.26C447.42 210.2 473.29 245.78 490.11 287.99C528.52 384.4 496.76 479.08 466.95 518.09C544.66 465.88 565.85 392.28 530.53 297.3C511.21 245.35 471.87 206.67 412.5 181.26Z" />
			<path id="&lt;Path&gt;" class="shp0" d="M256.21 189.55L275.35 210.6L238.23 266.1L225.59 271.51L128.62 195.93L134.45 149.29L253.27 51.97L386.99 152.55L390.65 222.66L387.63 237.4L240.26 402.62L277.26 450.93L260.61 608.89L240.81 616.76L220.93 458.55L169.45 399.44L325.75 205.5L253.1 141.28L203.9 187L225.59 210.6L256.21 189.55Z" />
			<path id="&lt;Path&gt;" class="shp0" d="M180.87 -0.08C166.59 22.15 168.82 58.16 196.63 76.88L227.08 51.97C198.53 42.79 183.12 25.45 180.87 -0.08Z" />
			<path id="&lt;Path&gt;" class="shp0" d="M108.18 349.03C108.18 320.7 118.12 294.62 134.77 273.82L134.76 273.82C83.27 298.05 58.53 348.12 60.55 424.04C33.31 356.45 47.14 283.18 102.04 204.22C47.6 238.25 0.82 317.97 0.82 378.63C0.82 463.1 57.98 536.67 138.91 570.86C140.95 572.29 142.58 573.42 143.83 574.23L46.86 586.99L222.98 607.6L205.51 468.57C149.68 455.59 108.18 407.01 108.18 349.03Z" />
			<path id="&lt;Path&gt;" class="shp0" d="M420.8 515.46L420.78 515.45C455.01 478.77 475.64 431.55 475.64 379.98C475.64 346.32 466.46 314.43 448.46 286.72C440.76 274.85 425.16 249.89 412.46 231.56L409.47 246.11L383.81 274.88C420.92 346.53 419.27 400.52 378.87 436.86C390.1 370.08 366.11 324.62 354.72 307.5L354.39 307.86C360.31 323.62 362.78 337.8 362.48 349.03C361.23 396.15 334.28 437.08 294.44 457.72L278.67 607.36L452.7 586.99L355.73 574.23C382.38 556.86 404.07 537.27 420.8 515.46Z" />
		</g>
	</g>
</svg>